<svg width="999" height="1636" viewBox="0 0 999 1636" fill="none" xmlns="http://www.w3.org/2000/svg">
<g filter="url(#filter0_d_3103_1019)">
<path d="M342.1 243.642L309.559 243.278C309.559 243.278 309.619 228.683 309.74 199.492C309.983 170.301 310.104 147.287 310.104 130.451C310.104 130.451 298.772 130.39 276.109 130.269C253.445 130.148 230.963 130.088 208.663 130.088C192.181 130.088 170.244 130.148 142.854 130.269C115.585 130.39 101.95 130.451 101.95 130.451C101.95 153.586 102.011 178.174 102.132 204.216C102.375 230.257 102.496 243.278 102.496 243.278H69.9547C69.9547 243.278 70.0759 229.107 70.3183 200.764C70.5607 172.421 70.6819 142.2 70.6819 110.102C70.6819 96.415 70.5607 79.7604 70.3183 60.1383C70.0759 40.5161 69.9547 20.47 69.9547 0H102.496C102.496 12.3547 102.375 27.9797 102.132 46.8751C102.011 65.7705 101.95 84.9082 101.95 104.288C101.95 104.288 115.161 104.349 141.581 104.47C168.123 104.591 190.605 104.651 209.027 104.651C228.297 104.651 249.93 104.591 273.927 104.47C298.045 104.349 310.104 104.288 310.104 104.288C310.104 85.6349 309.983 66.3156 309.74 46.3301C309.619 26.3446 309.559 10.9012 309.559 0H342.1C341.857 28.222 341.675 51.7807 341.554 70.6761C341.433 89.4504 341.372 105.318 341.372 118.278C341.372 142.745 341.494 169.756 341.736 199.31C341.978 228.865 342.1 243.642 342.1 243.642Z" fill="#FCF6F6"/>
<path d="M333.01 353.489C333.01 368.388 332.889 382.983 332.646 397.276C332.404 411.569 332.283 428.223 332.283 447.24C332.283 459.11 332.283 468.376 332.283 475.038C332.404 481.7 332.465 490.844 332.465 502.472C332.465 521.489 329.616 536.69 323.92 548.076C318.224 559.34 309.862 568.849 298.833 576.6C285.986 585.564 271.988 592.044 256.838 596.041C241.689 600.038 223.085 602.037 201.028 602.037C180.061 602.037 161.336 599.917 144.854 595.678C128.371 591.438 114.191 585.079 102.314 576.6C91.1639 568.606 82.9226 558.856 77.59 547.349C72.3786 535.721 69.7729 520.52 69.7729 501.746C69.7729 493.873 69.7729 485.757 69.7729 477.4C69.8941 469.042 69.9547 458.989 69.9547 447.24C69.9547 438.519 69.8335 425.558 69.5911 408.359C69.3487 391.159 69.2275 372.869 69.2275 353.489H102.314C102.314 356.396 102.132 368.509 101.769 389.827C101.526 411.023 101.466 431.554 101.587 451.418C101.708 462.077 101.769 470.314 101.769 476.128C101.769 481.942 101.769 490.118 101.769 500.656C101.769 528.03 110.495 547.531 127.947 559.159C145.399 570.787 169.759 576.6 201.028 576.6C233.508 576.6 258.293 570.665 275.381 558.795C292.591 546.925 301.196 528.151 301.196 502.472C301.196 495.326 301.257 488.119 301.378 480.852C301.62 473.584 301.741 464.621 301.741 453.962C301.741 437.489 301.62 417.504 301.378 394.006C301.135 370.386 301.014 356.881 301.014 353.489H333.01Z" fill="#FCF6F6"/>
<path d="M432.124 937.082L399.401 941.443L346.135 729.415H345.772C340.076 738.741 323.593 765.873 296.324 810.81C269.055 855.747 248.33 890.268 234.151 914.371H203.973C186.157 884.696 164.887 849.752 140.163 809.538C115.561 769.204 100.229 744.252 94.1696 734.683H93.0788C93.0788 734.683 85.5041 761.452 70.3546 814.989C55.2052 868.526 43.7522 910.435 35.9957 940.716L4 936.719C17.6951 892.751 32.7234 841.939 49.0848 784.284C65.4462 726.629 73.6269 697.801 73.6269 697.801L105.623 694.349C105.623 694.349 117.136 713.244 140.163 751.035C163.312 788.705 190.581 832.189 221.97 881.486H222.879C243.846 846.481 268.146 806.51 295.779 761.573C323.411 716.515 337.227 693.986 337.227 693.986L367.042 695.984C367.042 695.984 375.041 726.265 391.038 786.827C407.036 847.269 420.731 897.353 432.124 937.082Z" fill="#FCF6F6"/>
<path d="M391.257 1240.49L296.36 1277.73C292.724 1270.1 288.119 1261.44 282.544 1251.75C277.09 1241.94 272.909 1234.43 270 1229.22H146.381C144.563 1234.07 140.624 1242.67 134.564 1255.02C128.626 1267.38 125.05 1274.83 123.838 1277.37L34.7595 1238.49C39.3649 1230.13 56.4535 1200.52 86.0252 1149.65C115.597 1098.65 139.351 1057.47 157.288 1026.1H268.182C287.937 1060.38 312.479 1103.38 341.809 1155.1C371.138 1206.69 387.621 1235.16 391.257 1240.49ZM250.003 1170.54C244.792 1161.82 238.005 1149.58 229.642 1133.84C221.28 1117.97 214.735 1105.86 210.008 1097.5H208.918C203.706 1106.59 196.313 1119.55 186.739 1136.38C177.286 1153.1 170.741 1164.48 167.105 1170.54L167.287 1170.72H249.821L250.003 1170.54Z" fill="#FCF6F6"/>
<path d="M715.489 1235.76L626.774 1275.19C619.866 1267.08 605.807 1251.63 584.598 1228.86C563.51 1206.09 543.876 1185.26 525.696 1166.36L527.878 1159.82C534.786 1159.94 541.331 1159.34 547.512 1158C553.693 1156.67 559.934 1154.01 566.236 1150.01C572.054 1146.37 575.75 1142.26 577.326 1137.65C578.901 1132.93 579.689 1128.87 579.689 1125.48C579.689 1120.51 577.568 1115.61 573.326 1110.76C569.206 1105.92 562.661 1102.16 553.693 1099.5C548.239 1097.93 542.119 1096.77 535.332 1096.05C528.666 1095.2 521.03 1094.78 512.426 1094.78C511.214 1094.78 509.638 1094.84 507.699 1094.96C505.881 1094.96 503.821 1094.96 501.518 1094.96C501.518 1103.68 501.457 1115 501.336 1128.93C501.215 1142.74 501.154 1159.15 501.154 1178.17C501.154 1201.18 501.215 1220.32 501.336 1235.58C501.457 1250.72 501.518 1261.93 501.518 1269.19H399.168C399.168 1263.74 399.168 1249.51 399.168 1226.5C399.168 1203.36 399.229 1173.87 399.35 1138.02C399.35 1105.8 399.289 1080.48 399.168 1062.07C399.168 1043.54 399.168 1031.49 399.168 1025.92C404.622 1025.92 416.378 1025.86 434.436 1025.73C452.494 1025.49 464.674 1025.37 470.977 1025.37C502.73 1025.37 529.211 1025.73 550.42 1026.46C571.751 1027.19 590.779 1029.43 607.504 1033.18C632.47 1038.88 651.316 1047.42 664.041 1058.8C676.767 1070.07 683.13 1084.3 683.13 1101.5C683.13 1114.22 680.403 1125.6 674.949 1135.66C669.616 1145.59 659.8 1153.52 645.498 1159.46V1160.18C651.195 1165.39 660.042 1174.35 672.04 1187.07C684.039 1199.79 698.522 1216.02 715.489 1235.76Z" fill="#FCF6F6"/>
<path d="M995 1108.22C987.728 1108.22 975.366 1108.34 957.914 1108.58C940.462 1108.71 921.555 1108.77 901.195 1108.77C901.195 1119.79 901.195 1130.02 901.195 1139.47C901.195 1148.92 901.195 1159.52 901.195 1171.27C901.195 1191.86 901.195 1212.08 901.195 1231.95C901.316 1251.69 901.316 1264.11 901.195 1269.19H800.117C800.117 1265.08 800.178 1254.42 800.299 1237.22C800.42 1219.9 800.602 1199 800.845 1174.54C800.966 1164 800.966 1154.01 800.845 1144.56C800.845 1135.11 800.845 1123.18 800.845 1108.77C785.695 1108.77 767.092 1108.77 745.034 1108.77C722.976 1108.77 710.433 1108.77 707.403 1108.77V1025.92C713.099 1025.92 730.794 1025.98 760.486 1026.1C790.301 1026.1 820.478 1026.1 851.02 1026.1C865.563 1026.1 891.317 1026.1 928.282 1026.1C965.368 1025.98 987.607 1025.92 995 1025.92V1108.22Z" fill="#FCF6F6"/>
<path d="M362.782 1384.72C362.419 1405.19 362.177 1427.05 362.055 1450.31C362.055 1473.57 362.055 1490.1 362.055 1499.91C362.055 1543.52 362.177 1574.34 362.419 1592.39C362.661 1610.44 362.782 1619.46 362.782 1619.46L336.786 1628C298.125 1591.54 252.797 1549.45 200.804 1501.73C148.812 1454 120.27 1427.72 115.18 1422.88H114.998C114.998 1463.09 115.362 1507.36 116.089 1555.69C116.816 1603.9 117.179 1628 117.179 1628H85.911C85.911 1628 86.0322 1615.77 86.2745 1591.3C86.5169 1566.83 86.6381 1542.12 86.6381 1517.17C86.6381 1500.58 86.5169 1481.98 86.2745 1461.39C86.0322 1440.8 85.911 1418.58 85.911 1394.71L116.089 1384.36C123.118 1391.5 152.69 1419.12 204.804 1467.21C257.039 1515.29 299.943 1554.48 333.514 1584.76H333.877C333.877 1572.89 333.635 1542.91 333.15 1494.82C332.665 1446.74 332.423 1410.04 332.423 1384.72H362.782Z" fill="#FCF6F6"/>
</g>
<defs>
<filter id="filter0_d_3103_1019" x="0" y="0" width="999" height="1636" filterUnits="userSpaceOnUse" color-interpolation-filters="sRGB">
<feFlood flood-opacity="0" result="BackgroundImageFix"/>
<feColorMatrix in="SourceAlpha" type="matrix" values="0 0 0 0 0 0 0 0 0 0 0 0 0 0 0 0 0 0 127 0" result="hardAlpha"/>
<feOffset dy="4"/>
<feGaussianBlur stdDeviation="2"/>
<feComposite in2="hardAlpha" operator="out"/>
<feColorMatrix type="matrix" values="0 0 0 0 0 0 0 0 0 0 0 0 0 0 0 0 0 0 0.25 0"/>
<feBlend mode="normal" in2="BackgroundImageFix" result="effect1_dropShadow_3103_1019"/>
<feBlend mode="normal" in="SourceGraphic" in2="effect1_dropShadow_3103_1019" result="shape"/>
</filter>
</defs>
</svg>
